<?xml version="1.0" encoding="UTF-8"?>
<svg version="1.1" xmlns="http://www.w3.org/2000/svg" width="306" height="306">
<path d="M0 0 C1.65 0 3.3 0 5 0 C11.60319052 12.46247278 18.07838383 24.98443468 24.47210693 37.55551147 C31.24751029 50.87064559 38.04006223 64.15767997 45.28198242 77.2265625 C48.38179482 82.82578091 51.30443579 88.48892547 54.13183594 94.22998047 C58.85388205 103.80482945 63.90076311 113.2182175 69.0625 122.5625 C71.42436268 126.86446417 73.63303776 131.22903684 75.8125 135.625 C81.00915576 146.10611405 86.47690002 156.44280801 92.125 166.6875 C94.57721461 171.15642662 96.86304403 175.69543067 99.12255859 180.2644043 C101.58418384 185.220062 104.15638965 190.11235292 106.75 195 C110.40189762 201.88542114 113.92100163 208.82590485 117.375 215.8125 C121.53682799 224.2119862 125.921016 232.46266952 130.44433594 240.67236328 C134.61290971 248.24926415 138.64989851 255.8886682 142.61401367 263.57446289 C145.00506859 268.20626424 147.43037781 272.80678962 149.9765625 277.35546875 C150.67821533 278.62741089 150.67821533 278.62741089 151.39404297 279.92504883 C152.26567616 281.49992082 153.15163015 283.06699688 154.05517578 284.6237793 C154.44431152 285.3331665 154.83344727 286.04255371 155.234375 286.7734375 C155.57694336 287.37591309 155.91951172 287.97838867 156.27246094 288.59912109 C157.409753 292.3521849 157.13274113 296.10763073 157 300 C147.5511021 300.06950346 138.10229217 300.12281294 128.65319443 300.15543652 C124.265612 300.17109403 119.87820444 300.19233377 115.49072266 300.22631836 C111.25672944 300.2589089 107.02290444 300.27685237 102.78879547 300.28463173 C101.17324424 300.2901758 99.55770223 300.30100203 97.9422226 300.31719017 C95.67970365 300.33896085 93.41788024 300.34196715 91.15527344 300.34057617 C89.22334137 300.35056892 89.22334137 300.35056892 87.25238037 300.36076355 C83.79287005 299.97702454 82.44944474 299.40758096 80 297 C78.84667969 295.10571289 78.84667969 295.10571289 77.921875 292.97265625 C77.57012207 292.18648926 77.21836914 291.40032227 76.85595703 290.59033203 C76.49099121 289.75614746 76.12602539 288.92196289 75.75 288.0625 C62.88521115 259.92705344 41.1530398 238.80661628 12.3984375 227.2109375 C6.67904463 225.17299291 0.88075869 223.51286008 -5 222 C-5.58668457 221.82581543 -6.17336914 221.65163086 -6.77783203 221.47216797 C-9.70235905 220.85076221 -12.5275333 220.77866939 -15.515625 220.68359375 C-16.76601562 220.64169922 -18.01640625 220.59980469 -19.3046875 220.55664062 C-20.60664063 220.51732422 -21.90859375 220.47800781 -23.25 220.4375 C-25.22613281 220.37272461 -25.22613281 220.37272461 -27.2421875 220.30664062 C-30.49468788 220.20058083 -33.74726392 220.09851976 -37 220 C-37.11682129 220.72638672 -37.23364258 221.45277344 -37.35400391 222.20117188 C-38.0141069 225.06111923 -38.96104671 227.19626875 -40.3359375 229.78125 C-40.81772461 230.69511475 -41.29951172 231.60897949 -41.79589844 232.55053711 C-42.57755371 234.01052124 -42.57755371 234.01052124 -43.375 235.5 C-43.91157227 236.51521729 -44.44814453 237.53043457 -45.00097656 238.57641602 C-46.11568523 240.68523143 -47.23290073 242.79272354 -48.35253906 244.89892578 C-50.8341613 249.57017144 -53.29395919 254.25276516 -55.75 258.9375 C-56.20391113 259.8025415 -56.65782227 260.66758301 -57.12548828 261.55883789 C-61.8867857 270.65480248 -66.48806265 279.8290146 -70.9765625 289.0625 C-71.29592773 289.71420166 -71.61529297 290.36590332 -71.94433594 291.03735352 C-72.81911848 292.82340612 -73.6871364 294.61276741 -74.5546875 296.40234375 C-76 299 -76 299 -78 300 C-80.24664431 300.09202122 -82.49610433 300.11749805 -84.74462891 300.11352539 C-85.78382225 300.11374443 -85.78382225 300.11374443 -86.8440094 300.1139679 C-89.13822541 300.11327018 -91.43236064 300.10548442 -93.7265625 300.09765625 C-95.31554113 300.09579157 -96.90452034 300.0943679 -98.49349976 300.09336853 C-102.67909325 300.08954731 -106.86465213 300.07972039 -111.05023193 300.06866455 C-115.31994153 300.05844194 -119.5896567 300.05386909 -123.859375 300.04882812 C-132.23959923 300.03809778 -140.61979531 300.02102608 -149 300 C-149.04981315 297.6058598 -149.08610357 295.21276996 -149.11474609 292.81835938 C-149.13012924 292.14560974 -149.14551239 291.47286011 -149.16136169 290.77972412 C-149.21595373 284.68678871 -147.73458437 280.62261003 -144.625 275.5 C-143.94932983 274.30890625 -143.94932983 274.30890625 -143.26000977 273.09375 C-141.88137243 270.70120435 -140.45405324 268.34735052 -139 266 C-138.56768066 265.29746094 -138.13536133 264.59492188 -137.68994141 263.87109375 C-119.51692545 234.72688275 -92.60213717 212.77970653 -59 204 C-25.85843342 196.57367353 7.28278641 200.9107979 37 217 C37.91523438 217.49371094 38.83046875 217.98742187 39.7734375 218.49609375 C63.88432129 232.26816815 81.52492391 253.92657301 93 279 C93 279.66 93 280.32 93 281 C105.21 281 117.42 281 130 281 C116.39511099 254.51169337 102.70351073 228.07583082 88.80712891 201.73925781 C83.1044605 190.9310102 77.44654823 180.10033599 71.81494141 169.25488281 C68.58334219 163.03464749 65.33523092 156.82368241 62.0625 150.625 C57.38938585 141.77230192 52.78618139 132.88381855 48.18530273 123.9934082 C44.34228257 116.5725305 40.4766159 109.16444578 36.546875 101.7890625 C34.05075235 97.07922524 31.66060398 92.32038539 29.2890625 87.546875 C25.29242869 79.51491539 21.13465963 71.57356239 16.92578125 63.65112305 C15.73465633 61.40861273 14.54683011 59.16437723 13.359375 56.91992188 C12.58873181 55.46604503 11.81790533 54.01226532 11.046875 52.55859375 C10.69888855 51.90120712 10.3509021 51.2438205 9.99237061 50.56651306 C7.73964891 46.33042568 5.39801635 42.15564572 3 38 C-0.08834898 40.61393393 -1.55202089 43.85450736 -3.25 47.4375 C-7.1238129 55.40497036 -11.29308463 63.20513284 -15.5 71 C-19.86589784 79.09592587 -24.1711113 87.20623174 -28.21484375 95.46875 C-30.65089747 100.40440667 -33.30219886 105.20317797 -36 110 C-39.36017053 115.97959052 -42.5664904 121.99718458 -45.59179688 128.15234375 C-49.29134981 135.65441929 -53.15132871 143.07374116 -57 150.5 C-57.34549896 151.1668985 -57.69099792 151.833797 -58.04696655 152.52090454 C-60.02985538 156.34802565 -62.01426388 160.17435525 -64 164 C-62.76507813 163.79503906 -61.53015625 163.59007812 -60.2578125 163.37890625 C-58.54688058 163.10673573 -56.83594262 162.83460322 -55.125 162.5625 C-54.22475098 162.41039062 -53.32450195 162.25828125 -52.39697266 162.1015625 C-47.84662065 161.38103032 -43.61983732 160.90493826 -39.015625 161.24609375 C-32.3507576 161.73868226 -32.3507576 161.73868226 -26 160 C-21.57695726 155.55515545 -19.45085758 149.42210903 -17.14306641 143.70458984 C-15.27969859 139.29570717 -12.97099582 135.13948594 -10.6875 130.9375 C-7.6709961 125.24396455 -4.71680885 119.52891264 -1.9375 113.71484375 C-1 112 -1 112 1 110 C2.9375 110.0625 2.9375 110.0625 5 111 C7.18789386 114.32997665 8.96259514 117.82828067 10.71484375 121.40234375 C11.4871936 122.96746704 11.4871936 122.96746704 12.27514648 124.56420898 C13.09801147 126.23398804 13.09801147 126.23398804 13.9375 127.9375 C18.11657477 136.36050028 22.3922545 144.70509486 26.9375 152.9375 C31.2868495 160.84822 35.62355362 168.76508204 39.84597778 176.74441528 C40.48525646 177.9469358 41.12961588 179.14677041 41.77926636 180.34371948 C42.68526449 182.01491457 43.5715693 183.69674016 44.45703125 185.37890625 C44.97241455 186.3438501 45.48779785 187.30879395 46.01879883 188.30297852 C47.13289117 191.36527713 46.94297524 192.92511112 46 196 C40.96540765 195.45692849 36.89173478 194.31306669 32.25 192.3125 C26.42446134 189.89928409 20.55436555 187.71558228 14.5625 185.75 C13.84932617 185.50419189 13.13615234 185.25838379 12.40136719 185.00512695 C0.04045191 181.04368029 -13.08983426 180.66343957 -25.96435547 180.73925781 C-28.13146687 180.75003215 -30.29775619 180.73924979 -32.46484375 180.7265625 C-47.30663201 180.70553567 -60.62618646 183.12451527 -74.625 188 C-75.97229767 188.45678817 -77.31995335 188.91252177 -78.66796875 189.3671875 C-85.06095978 191.44387528 -85.06095978 191.44387528 -91.20068359 194.13671875 C-93.80290507 195.38522013 -96.16112436 195.1290398 -99 195 C-99.37101414 189.96393149 -98.35042356 187.07084135 -95.9296875 182.67578125 C-95.61097687 182.08887009 -95.29226624 181.50195892 -94.96389771 180.89726257 C-93.9458901 179.0290258 -92.91093367 177.17084507 -91.875 175.3125 C-91.20197315 174.08461503 -90.53008808 172.85610349 -89.859375 171.62695312 C-88.54187522 169.21728252 -87.21819265 166.81120998 -85.88769531 164.40869141 C-81.9679549 157.33065006 -78.06481612 150.26415361 -74.5 143 C-66.34684612 126.53108201 -57.77176694 110.26380565 -49.14453125 94.0390625 C-46.29837914 88.68612249 -43.48299236 83.31700377 -40.66357422 77.94995117 C-38.41488155 73.67375591 -36.15011851 69.40701113 -33.86279297 65.15136719 C-30.92555504 59.68342946 -28.0684155 54.18662814 -25.3125 48.625 C-17.19918074 32.254143 -8.65885906 16.08821244 0 0 Z M2 146 C0.82558465 148.10016623 -0.33964012 150.20458755 -1.5 152.3125 C-1.83386719 152.90740234 -2.16773438 153.50230469 -2.51171875 154.11523438 C-4.06825114 156.95828844 -5 158.70660988 -5 162 C0.45461169 163.38529821 5.36718401 164.2396943 11 164 C10.39733215 159.49272353 8.63400206 156.1412037 6.4375 152.1875 C6.10814453 151.59001953 5.77878906 150.99253906 5.43945312 150.37695312 C4.63226733 148.91466002 3.81695083 147.4568601 3 146 C2.67 146 2.34 146 2 146 Z M-106.6875 253.375 C-111.44426467 258.22569232 -115.3570223 263.27938658 -119 269 C-119.7425 270.11955078 -119.7425 270.11955078 -120.5 271.26171875 C-122.63496226 274.54301019 -124.1066534 277.17433962 -125 281 C-119.98327623 281.24805039 -114.97014499 281.42900266 -109.94873047 281.54931641 C-108.2430199 281.59947485 -106.53773664 281.66762724 -104.83349609 281.75439453 C-95.20536816 282.59585769 -95.20536816 282.59585769 -86.71484375 279.11401367 C-85.10634439 276.47278461 -84.05480578 273.90428109 -83 271 C-82.06990694 269.20790939 -81.116362 267.42780982 -80.140625 265.66015625 C-79.17389309 263.79592173 -78.21044251 261.92998256 -77.25 260.0625 C-76.20750192 258.04663153 -75.16452494 256.03101065 -74.12109375 254.015625 C-73.34354736 252.51225586 -73.34354736 252.51225586 -72.55029297 250.97851562 C-71.06117134 248.11752604 -69.55313574 245.26764157 -68.03515625 242.421875 C-67.5752832 241.55812256 -67.11541016 240.69437012 -66.64160156 239.80444336 C-65.7757714 238.18109132 -64.90678533 236.55941733 -64.03417969 234.93969727 C-63.6477832 234.21322998 -63.26138672 233.4867627 -62.86328125 232.73828125 C-62.52594971 232.10962158 -62.18861816 231.48096191 -61.84106445 230.83325195 C-60.95917995 228.91102532 -60.44793505 227.06289629 -60 225 C-76.38530075 225 -95.91261181 242.82378654 -106.6875 253.375 Z " fill="#CF985F" transform="translate(149,0)"/>
<path d="M0 0 C1.65 0 3.3 0 5 0 C11.60319052 12.46247278 18.07838383 24.98443468 24.47210693 37.55551147 C31.24751029 50.87064559 38.04006223 64.15767997 45.28198242 77.2265625 C48.38179482 82.82578091 51.30443579 88.48892547 54.13183594 94.22998047 C58.85388205 103.80482945 63.90076311 113.2182175 69.0625 122.5625 C71.42436268 126.86446417 73.63303776 131.22903684 75.8125 135.625 C81.00915576 146.10611405 86.47690002 156.44280801 92.125 166.6875 C94.57721461 171.15642662 96.86304403 175.69543067 99.12255859 180.2644043 C101.58418384 185.220062 104.15638965 190.11235292 106.75 195 C110.40189762 201.88542114 113.92100163 208.82590485 117.375 215.8125 C121.53682799 224.2119862 125.921016 232.46266952 130.44433594 240.67236328 C134.61290971 248.24926415 138.64989851 255.8886682 142.61401367 263.57446289 C145.00506859 268.20626424 147.43037781 272.80678962 149.9765625 277.35546875 C150.67821533 278.62741089 150.67821533 278.62741089 151.39404297 279.92504883 C152.26567616 281.49992082 153.15163015 283.06699688 154.05517578 284.6237793 C154.44431152 285.3331665 154.83344727 286.04255371 155.234375 286.7734375 C155.57694336 287.37591309 155.91951172 287.97838867 156.27246094 288.59912109 C157.409753 292.3521849 157.13274113 296.10763073 157 300 C147.5511021 300.06950346 138.10229217 300.12281294 128.65319443 300.15543652 C124.265612 300.17109403 119.87820444 300.19233377 115.49072266 300.22631836 C111.25672944 300.2589089 107.02290444 300.27685237 102.78879547 300.28463173 C101.17324424 300.2901758 99.55770223 300.30100203 97.9422226 300.31719017 C95.67970365 300.33896085 93.41788024 300.34196715 91.15527344 300.34057617 C89.22334137 300.35056892 89.22334137 300.35056892 87.25238037 300.36076355 C83.79287005 299.97702454 82.44944474 299.40758096 80 297 C78.84667969 295.10571289 78.84667969 295.10571289 77.921875 292.97265625 C77.57012207 292.18648926 77.21836914 291.40032227 76.85595703 290.59033203 C76.49099121 289.75614746 76.12602539 288.92196289 75.75 288.0625 C62.88521115 259.92705344 41.1530398 238.80661628 12.3984375 227.2109375 C6.67904463 225.17299291 0.88075869 223.51286008 -5 222 C-5.58668457 221.82581543 -6.17336914 221.65163086 -6.77783203 221.47216797 C-9.70235905 220.85076221 -12.5275333 220.77866939 -15.515625 220.68359375 C-16.76601562 220.64169922 -18.01640625 220.59980469 -19.3046875 220.55664062 C-20.60664063 220.51732422 -21.90859375 220.47800781 -23.25 220.4375 C-25.22613281 220.37272461 -25.22613281 220.37272461 -27.2421875 220.30664062 C-30.49468788 220.20058083 -33.74726392 220.09851976 -37 220 C-37.11682129 220.72638672 -37.23364258 221.45277344 -37.35400391 222.20117188 C-38.0141069 225.06111923 -38.96104671 227.19626875 -40.3359375 229.78125 C-40.81772461 230.69511475 -41.29951172 231.60897949 -41.79589844 232.55053711 C-42.57755371 234.01052124 -42.57755371 234.01052124 -43.375 235.5 C-43.91157227 236.51521729 -44.44814453 237.53043457 -45.00097656 238.57641602 C-46.11568523 240.68523143 -47.23290073 242.79272354 -48.35253906 244.89892578 C-50.8341613 249.57017144 -53.29395919 254.25276516 -55.75 258.9375 C-56.20391113 259.8025415 -56.65782227 260.66758301 -57.12548828 261.55883789 C-61.8867857 270.65480248 -66.48806265 279.8290146 -70.9765625 289.0625 C-71.29592773 289.71420166 -71.61529297 290.36590332 -71.94433594 291.03735352 C-72.81911848 292.82340612 -73.6871364 294.61276741 -74.5546875 296.40234375 C-76 299 -76 299 -78 300 C-80.24664431 300.09202122 -82.49610433 300.11749805 -84.74462891 300.11352539 C-85.78382225 300.11374443 -85.78382225 300.11374443 -86.8440094 300.1139679 C-89.13822541 300.11327018 -91.43236064 300.10548442 -93.7265625 300.09765625 C-95.31554113 300.09579157 -96.90452034 300.0943679 -98.49349976 300.09336853 C-102.67909325 300.08954731 -106.86465213 300.07972039 -111.05023193 300.06866455 C-115.31994153 300.05844194 -119.5896567 300.05386909 -123.859375 300.04882812 C-132.23959923 300.03809778 -140.61979531 300.02102608 -149 300 C-149 299.01 -149 298.02 -149 297 C-125.9 296.67 -102.8 296.34 -79 296 C-73.3399439 285.52914112 -73.3399439 285.52914112 -67.9375 274.9375 C-67.60661377 274.27194092 -67.27572754 273.60638184 -66.93481445 272.9206543 C-65.37376912 269.78012757 -63.82002973 266.63600608 -62.265625 263.4921875 C-61.74484375 262.44289063 -61.2240625 261.39359375 -60.6875 260.3125 C-60.23761719 259.40113281 -59.78773437 258.48976563 -59.32421875 257.55078125 C-57.98164301 254.96463978 -56.51337688 252.48921552 -55 250 C-52.91520453 246.08058452 -51.31275354 242.24120374 -50 238 C-49.34 238 -48.68 238 -48 238 C-47.79375 237.0925 -47.5875 236.185 -47.375 235.25 C-45.57639267 228.98056873 -42.77818917 221.92081942 -38.25 217.16015625 C-30.92813681 213.38482054 -18.48695668 216.00053008 -10.4375 216.8125 C-9.70063965 216.88235107 -8.9637793 216.95220215 -8.20458984 217.02416992 C-3.33739049 217.58065859 0.51020575 218.94782026 5 221 C7.09607759 221.6316593 9.20045269 222.2364871 11.3125 222.8125 C16.751345 224.42911522 21.16722575 226.59199692 25.87890625 229.73046875 C27.90572051 231.08995952 27.90572051 231.08995952 30.08984375 231.48828125 C32.50120262 232.134269 33.29885953 233.19280339 35 235 C36.67201645 236.22966934 38.36160445 237.43559678 40.0625 238.625 C45.74966531 242.71945851 50.90192167 247.20077454 56 252 C56.60328125 252.53882813 57.2065625 253.07765625 57.828125 253.6328125 C61.82466643 257.34922252 65.08252804 261.55818093 68.3125 265.9375 C68.745625 266.51072998 69.17875 267.08395996 69.625 267.67456055 C72.71355076 271.98403881 73.96702571 275.80088632 75 281 C75.66 281 76.32 281 77 281 C77.81752303 282.58074564 78.62881997 284.16471223 79.4375 285.75 C79.88996094 286.63171875 80.34242188 287.5134375 80.80859375 288.421875 C82 291 82 291 82.47265625 293.265625 C82.64667969 293.83796875 82.82070312 294.4103125 83 295 C86.40809554 296.13603185 89.07996451 296.15948953 92.67456055 296.20532227 C93.347995 296.21522186 94.02142944 296.22512146 94.715271 296.23532104 C96.93905127 296.26688389 99.1628529 296.29167275 101.38671875 296.31640625 C102.92943372 296.33698029 104.4721431 296.35797688 106.0148468 296.37937927 C110.07377602 296.4345535 114.13275573 296.48398325 118.19177246 296.53222656 C122.33427418 296.58247554 126.47670266 296.63814387 130.61914062 296.69335938 C138.74603181 296.80088409 146.8729843 296.90234166 155 297 C154.65791504 296.27119629 154.31583008 295.54239258 153.96337891 294.79150391 C153.51397949 293.82132324 153.06458008 292.85114258 152.6015625 291.8515625 C152.15635254 290.89588379 151.71114258 289.94020508 151.25244141 288.95556641 C149.71977273 285.33870733 148.69890422 281.70847582 147.7734375 277.8984375 C147.51820313 277.27195312 147.26296875 276.64546875 147 276 C146.01 275.67 145.02 275.34 144 275 C143.67 273.02 143.34 271.04 143 269 C142.34 269 141.68 269 141 269 C137.84063292 263.63943454 135.26244376 258.3113279 133.046875 252.5 C131.62403463 249.10217224 129.8295197 245.9775031 127.953125 242.8125 C127 241 127 241 127 239 C126.34 239 125.68 239 125 239 C124.68546875 238.19175781 124.3709375 237.38351563 124.046875 236.55078125 C123.40492188 234.94783203 123.40492188 234.94783203 122.75 233.3125 C122.12351562 231.72888672 122.12351562 231.72888672 121.484375 230.11328125 C120.12448362 226.95294025 120.12448362 226.95294025 117.9375 224.4375 C115.87427222 221.84182634 115.0980274 219.86760274 114.25 216.6875 C114.00765625 215.80449219 113.7653125 214.92148438 113.515625 214.01171875 C113.26039063 213.01591797 113.26039063 213.01591797 113 212 C112.34 212 111.68 212 111 212 C110.5978125 210.92685547 110.5978125 210.92685547 110.1875 209.83203125 C107.37807769 202.68833572 103.90400053 196.43572047 99.78515625 189.96875 C98.32856682 187.5464131 97.23327002 185.40181764 96.3125 182.75 C94.93020001 178.80057145 93.10825727 175.47238841 90.98828125 171.8828125 C90 170 90 170 90 168 C89.34 168 88.68 168 88 168 C87.0097347 166.29807615 86.03326794 164.58811989 85.0625 162.875 C84.51722656 161.92367187 83.97195312 160.97234375 83.41015625 159.9921875 C81.97051473 156.93743568 81.39132616 154.33865613 81 151 C80.01 150.67 79.02 150.34 78 150 C76.90014648 148.26025391 76.90014648 148.26025391 75.87109375 145.9765625 C75.48066895 145.12932617 75.09024414 144.28208984 74.68798828 143.40917969 C74.27532715 142.49040039 73.86266602 141.57162109 73.4375 140.625 C69.66142764 132.43812688 65.68562398 124.41493009 61.40014648 116.48291016 C54 102.69865561 54 102.69865561 54 99 C53.34 99 52.68 99 52 99 C50.40804093 96.04623365 48.82811525 93.08618254 47.25 90.125 C46.8065625 89.30257812 46.363125 88.48015625 45.90625 87.6328125 C43.71461223 83.5073767 41.71058752 79.41613241 40.03125 75.0546875 C37.86968626 69.46462525 35.09627959 64.26673782 32.25 59 C31.25150296 57.1478261 30.25651717 55.29375353 29.265625 53.4375 C28.83024414 52.63183594 28.39486328 51.82617188 27.94628906 50.99609375 C27 49 27 49 27 47 C26.34 47 25.68 47 25 47 C24.31640625 45.27473958 23.6328125 43.54947917 22.94921875 41.82421875 C22.09815625 39.94603788 22.09815625 39.94603788 20.57763672 38.65307617 C18.79692814 36.78721764 17.89588218 35.06095341 16.80859375 32.7265625 C16.42123047 31.9015625 16.03386719 31.0765625 15.63476562 30.2265625 C15.23966797 29.36804688 14.84457031 28.50953125 14.4375 27.625 C14.03853516 26.77421875 13.63957031 25.9234375 13.22851562 25.046875 C11.69844791 21.76706373 10.19899418 18.49782502 8.85546875 15.13671875 C8.01168156 13.02917722 7.02491872 11.14236183 5.875 9.1875 C4.946875 7.6096875 4.946875 7.6096875 4 6 C3.01 6 2.02 6 1 6 C-1.475 10.95 -1.475 10.95 -4 16 C-4.66 16 -5.32 16 -6 16 C-6.66 18.64 -7.32 21.28 -8 24 C-8.66 24 -9.32 24 -10 24 C-10.37125 25.2684375 -10.37125 25.2684375 -10.75 26.5625 C-11.71498575 29.21621081 -12.64492042 31.23831146 -14.0625 33.625 C-15.57763475 36.26426698 -16.52931031 38.05818943 -17 41 C-17.66 41 -18.32 41 -19 41 C-19.2475 41.78375 -19.495 42.5675 -19.75 43.375 C-22.74892827 52.07189199 -26.47876582 59.98698189 -31 68 C-31.33 68.66 -31.66 69.32 -32 70 C-32.66 70 -33.32 70 -34 70 C-34.226875 70.804375 -34.45375 71.60875 -34.6875 72.4375 C-35.76296018 75.35660621 -36.90004799 77.70298249 -38.4375 80.375 C-40.7903055 84.47500722 -42.45773752 88.53555597 -44 93 C-44.66 93 -45.32 93 -46 93 C-46.23783203 93.92619141 -46.23783203 93.92619141 -46.48046875 94.87109375 C-48.20804228 101.14189933 -50.61174745 106.45558674 -54 112 C-54.66 112 -55.32 112 -56 112 C-56.2475 112.804375 -56.495 113.60875 -56.75 114.4375 C-58.26078647 118.74324143 -60.10188856 122.85364007 -62 127 C-62.66 127 -63.32 127 -64 127 C-64.226875 127.763125 -64.45375 128.52625 -64.6875 129.3125 C-67.33980962 136.76422701 -70.61680482 143.42520723 -75 150 C-76.1278865 152.6365552 -77.06406956 155.28580174 -78 158 C-78.66 158 -79.32 158 -80 158 C-80.26554687 158.84820312 -80.53109375 159.69640625 -80.8046875 160.5703125 C-82.04440466 164.12740946 -83.52482616 167.46593399 -85.125 170.875 C-85.66382813 172.02742187 -86.20265625 173.17984375 -86.7578125 174.3671875 C-87.16773438 175.23601562 -87.57765625 176.10484375 -88 177 C-88.66 177 -89.32 177 -90 177 C-90.268125 177.886875 -90.53625 178.77375 -90.8125 179.6875 C-91.92131493 182.78051006 -93.30822422 185.20489219 -95 188 C-95.36386263 189.32532746 -95.70275689 190.65815969 -96 192 C-94.0393158 191.38241446 -92.08150937 190.75568655 -90.125 190.125 C-88.48917969 189.60292969 -88.48917969 189.60292969 -86.8203125 189.0703125 C-83.91477277 188.18824769 -83.91477277 188.18824769 -82 186 C-73.33951872 182.15960559 -64.39211754 180.04667496 -55.13500977 178.25634766 C-51.24853267 177.8210159 -51.24853267 177.8210159 -48 176 C-45.13904376 175.89890614 -42.30273943 175.86030572 -39.44140625 175.8671875 C-38.15217506 175.86575241 -38.15217506 175.86575241 -36.8368988 175.86428833 C-35.01520718 175.86360643 -33.19351315 175.86546139 -31.37182617 175.86962891 C-28.5779068 175.87497054 -25.78414867 175.86968761 -22.99023438 175.86328125 C-21.22395798 175.86394216 -19.45768168 175.86522358 -17.69140625 175.8671875 C-16.85178848 175.86516327 -16.01217072 175.86313904 -15.14710999 175.86105347 C-9.22990945 175.88504528 -9.22990945 175.88504528 -7 177 C-5.2108876 177.24832162 -3.4184949 177.47311051 -1.625 177.6875 C10.82581272 179.54128767 23.45140865 183.27328193 34.7109375 188.921875 C37.40864339 190.19246685 40.15987465 191.09967208 43 192 C41.73463 189.1017494 40.46173391 186.2068632 39.1875 183.3125 C38.83107422 182.49587891 38.47464844 181.67925781 38.10742188 180.83789062 C36.28583719 176.71007945 34.34152379 172.86314493 32 169 C32 168.34 32 167.68 32 167 C31.34 167 30.68 167 30 167 C28.98965502 165.25595212 27.99207578 163.50450439 27 161.75 C26.443125 160.77546875 25.88625 159.8009375 25.3125 158.796875 C24 156 24 156 24 152 C23.01 151.67 22.02 151.34 21 151 C20.23590896 149.33893252 19.48337316 147.670275 18.82421875 145.96484375 C17.99423746 143.98626276 17.0002807 142.26151096 15.875 140.4375 C14.06885064 137.12622617 13.36279447 134.71864332 13 131 C12.34 131 11.68 131 11 131 C10.67 129.02 10.34 127.04 10 125 C9.34 125 8.68 125 8 125 C6.02 120.545 6.02 120.545 4 116 C3.01 116 2.02 116 1 116 C-1.82421236 120.57717175 -3.73339593 124.80436319 -5.19140625 129.984375 C-6 132 -6 132 -7.40234375 133.359375 C-9.72094279 135.74033244 -10.68667661 138.46293965 -12 141.5 C-14.68913611 147.71862725 -14.68913611 147.71862725 -16.44628906 149.30908203 C-18.573466 151.62410835 -19.25097744 154.15520657 -20.359375 157.0859375 C-23.06876154 162.62999047 -23.06876154 162.62999047 -26.85351562 164.13378906 C-30.35910529 164.56599932 -33.71839353 164.66699748 -37.25 164.625 C-39.60949784 164.67410236 -41.96888827 164.72870383 -44.328125 164.7890625 C-46.02412842 164.81492432 -46.02412842 164.81492432 -47.75439453 164.84130859 C-51.60542905 165.02960199 -55.19738001 165.67505506 -58.94189453 166.56347656 C-61.64900841 167.13765445 -64.2447914 167.14501098 -67 167 C-67.95597462 159.83019037 -64.74665134 154.95270881 -61 149 C-60.484375 148.33871094 -59.96875 147.67742187 -59.4375 146.99609375 C-57.77070381 144.68160231 -56.82794651 142.41117016 -55.8125 139.75 C-55.29623047 138.41195312 -55.29623047 138.41195312 -54.76953125 137.046875 C-54.51558594 136.37140625 -54.26164062 135.6959375 -54 135 C-53.34 135 -52.68 135 -52 135 C-51.01 131.04 -51.01 131.04 -50 127 C-49.34 127 -48.68 127 -48 127 C-47.61714844 125.49759766 -47.61714844 125.49759766 -47.2265625 123.96484375 C-46.06661951 119.90504328 -44.3194285 116.29722547 -42.375 112.5625 C-41.88773438 111.60827148 -41.88773438 111.60827148 -41.390625 110.63476562 C-40.59928647 109.08700056 -39.8004333 107.5430813 -39 106 C-38.34 106 -37.68 106 -37 106 C-36.731875 105.113125 -36.46375 104.22625 -36.1875 103.3125 C-35 100 -35 100 -33.625 97.75 C-31.69342702 94.48118419 -30.42263503 91.11495199 -29.05078125 87.58203125 C-27.56861993 83.93999172 -25.80944252 80.48963915 -24 77 C-23.34 77 -22.68 77 -22 77 C-21.9071875 76.01 -21.9071875 76.01 -21.8125 75 C-20.86391493 71.49753203 -19.27034438 69.04803228 -17.25390625 66.0625 C-15.93615881 64.03453113 -15.93615881 64.03453113 -15.14453125 61.76171875 C-13.53147481 57.8694631 -11.31403426 54.40451704 -9.125 50.8125 C-5.77020308 45.25496227 -2.83325163 39.93013715 -0.9140625 33.6875 C0 32 0 32 2.1015625 31.25 C2.72804687 31.1675 3.35453125 31.085 4 31 C6.45256988 34.85403838 8.22921259 38.79437989 10 43 C10.556875 44.093125 11.11375 45.18625 11.6875 46.3125 C13 49 13 49 13 51 C13.99 51.33 14.98 51.66 16 52 C17.18352527 54.57678919 18.20771969 57.09685507 19.1875 59.75 C21.89894693 66.74353113 25.0491127 72.80606196 29.203125 79.0703125 C31.16808187 82.27404653 32.56643791 85.52990125 34 89 C35.04622219 91.0539546 36.12937457 93.08061016 37.23046875 95.10546875 C38 97 38 97 38 101 C38.66 101 39.32 101 40 101 C45.77161515 111.42661538 51.53243104 121.8538346 57.00561523 132.44116211 C58.5709156 135.43973154 60.159529 138.23461922 62.06640625 141.0390625 C64.16315835 144.24984653 65.53715101 147.45959421 67 151 C68.15212449 153.29901205 69.31899574 155.59068913 70.5 157.875 C73.18568321 163.13941754 75.33681851 168.32561608 77 174 C77.66 174 78.32 174 79 174 C81.37417795 177.90043521 83.31935619 181.6642794 84.9375 185.9375 C86.51110023 190.02638249 88.45007017 193.50037078 90.85546875 197.1484375 C92.21067856 199.3408247 93.11034836 201.6516185 94.06640625 204.0390625 C95.27336001 206.57417041 96.7747031 208.83874237 98.3125 211.1875 C104.29035377 220.38128776 110.56302562 231.19045027 113 242 C113.66 242 114.32 242 115 242 C115.268125 242.680625 115.53625 243.36125 115.8125 244.0625 C118.33739497 250.30829283 121.07932494 256.39866151 124.0625 262.4375 C124.55459961 263.44780273 124.55459961 263.44780273 125.05664062 264.47851562 C127.00997112 268.38127776 129.16022477 271.65248949 132 275 C134.29013653 278.4352048 134.17842973 279.985331 134 284 C128.21595259 284.09880115 122.43239516 284.1714363 116.64770508 284.21972656 C114.6795191 284.23985481 112.71139301 284.26716019 110.7434082 284.30175781 C107.9160282 284.35022311 105.08943799 284.37295618 102.26171875 284.390625 C100.93970711 284.42159271 100.93970711 284.42159271 99.59098816 284.45318604 C93.49845484 284.45542908 93.49845484 284.45542908 90.92114258 282.10058594 C90 280 90 280 90 278 C89.34 278 88.68 278 88 278 C86.02325409 275.24974482 84.9136943 272.73149339 83.875 269.5 C77.69818294 252.56151198 60.67757884 236.78505256 46 227 C46 226.34 46 225.68 46 225 C45.28457031 224.89558594 44.56914062 224.79117188 43.83203125 224.68359375 C40.68836323 223.92477733 38.44784227 222.73506294 35.6875 221.0625 C34.80449219 220.53785156 33.92148438 220.01320312 33.01171875 219.47265625 C32.34785156 218.98667969 31.68398437 218.50070313 31 218 C31 217.34 31 216.68 31 216 C30.27047119 215.87343018 29.54094238 215.74686035 28.78930664 215.61645508 C26.1240088 215.02740676 23.87377943 214.21019448 21.37109375 213.13671875 C16.02972936 210.94815378 10.62937771 209.32076736 5.0625 207.8125 C4.15048828 207.55275391 3.23847656 207.29300781 2.29882812 207.02539062 C-17.05764807 201.73142858 -44.30024607 200.96085345 -63 209 C-63.99 209 -64.98 209 -66 209 C-66 209.66 -66 210.32 -66 211 C-67.07314453 211.20302734 -67.07314453 211.20302734 -68.16796875 211.41015625 C-84.12303797 214.8571117 -98.72863642 224.65809135 -110.51171875 235.78515625 C-112 237 -112 237 -114 237 C-114.26941406 237.60328125 -114.53882813 238.2065625 -114.81640625 238.828125 C-116.01320552 241.0242319 -117.07014066 242.12462121 -118.9375 243.75 C-122.76716804 247.4509397 -125.69355387 251.6224234 -128.6875 256 C-129.1508374 256.67643555 -129.6141748 257.35287109 -130.09155273 258.04980469 C-134.40944754 264.45094204 -137.99661554 270.8669619 -141 278 C-142.29987802 280.68483895 -143.64724072 283.34112831 -145 286 C-145.66 286 -146.32 286 -147 286 C-147.99 287.98 -147.99 287.98 -149 290 C-149.75594084 284.62202086 -147.10654559 280.68750338 -144.625 276.125 C-144.17455322 275.28582031 -143.72410645 274.44664062 -143.26000977 273.58203125 C-125.44743245 240.93544421 -99.31690508 216.75251193 -63.52734375 205.25390625 C-29.80536473 195.36617465 6.5146569 200.49492476 37 217 C37.91523438 217.49371094 38.83046875 217.98742187 39.7734375 218.49609375 C63.88432129 232.26816815 81.52492391 253.92657301 93 279 C93 279.66 93 280.32 93 281 C105.21 281 117.42 281 130 281 C116.39511099 254.51169337 102.70351073 228.07583082 88.80712891 201.73925781 C83.1044605 190.9310102 77.44654823 180.10033599 71.81494141 169.25488281 C68.58334219 163.03464749 65.33523092 156.82368241 62.0625 150.625 C57.38938585 141.77230192 52.78618139 132.88381855 48.18530273 123.9934082 C44.34228257 116.5725305 40.4766159 109.16444578 36.546875 101.7890625 C34.05075235 97.07922524 31.66060398 92.32038539 29.2890625 87.546875 C25.29242869 79.51491539 21.13465963 71.57356239 16.92578125 63.65112305 C15.73465633 61.40861273 14.54683011 59.16437723 13.359375 56.91992188 C12.58873181 55.46604503 11.81790533 54.01226532 11.046875 52.55859375 C10.69888855 51.90120712 10.3509021 51.2438205 9.99237061 50.56651306 C7.73964891 46.33042568 5.39801635 42.15564572 3 38 C-0.08834898 40.61393393 -1.55202089 43.85450736 -3.25 47.4375 C-7.1238129 55.40497036 -11.29308463 63.20513284 -15.5 71 C-19.86589784 79.09592587 -24.1711113 87.20623174 -28.21484375 95.46875 C-30.65089747 100.40440667 -33.30219886 105.20317797 -36 110 C-39.36017053 115.97959052 -42.5664904 121.99718458 -45.59179688 128.15234375 C-49.29134981 135.65441929 -53.15132871 143.07374116 -57 150.5 C-57.34549896 151.1668985 -57.69099792 151.833797 -58.04696655 152.52090454 C-60.02985538 156.34802565 -62.01426388 160.17435525 -64 164 C-62.76507813 163.79503906 -61.53015625 163.59007812 -60.2578125 163.37890625 C-58.54688058 163.10673573 -56.83594262 162.83460322 -55.125 162.5625 C-54.22475098 162.41039062 -53.32450195 162.25828125 -52.39697266 162.1015625 C-47.84662065 161.38103032 -43.61983732 160.90493826 -39.015625 161.24609375 C-32.3507576 161.73868226 -32.3507576 161.73868226 -26 160 C-21.57695726 155.55515545 -19.45085758 149.42210903 -17.14306641 143.70458984 C-15.27969859 139.29570717 -12.97099582 135.13948594 -10.6875 130.9375 C-7.6709961 125.24396455 -4.71680885 119.52891264 -1.9375 113.71484375 C-1 112 -1 112 1 110 C2.9375 110.0625 2.9375 110.0625 5 111 C7.18789386 114.32997665 8.96259514 117.82828067 10.71484375 121.40234375 C11.4871936 122.96746704 11.4871936 122.96746704 12.27514648 124.56420898 C13.09801147 126.23398804 13.09801147 126.23398804 13.9375 127.9375 C18.11657477 136.36050028 22.3922545 144.70509486 26.9375 152.9375 C31.2868495 160.84822 35.62355362 168.76508204 39.84597778 176.74441528 C40.48525646 177.9469358 41.12961588 179.14677041 41.77926636 180.34371948 C42.68526449 182.01491457 43.5715693 183.69674016 44.45703125 185.37890625 C44.97241455 186.3438501 45.48779785 187.30879395 46.01879883 188.30297852 C47.13289117 191.36527713 46.94297524 192.92511112 46 196 C40.96540765 195.45692849 36.89173478 194.31306669 32.25 192.3125 C26.42446134 189.89928409 20.55436555 187.71558228 14.5625 185.75 C13.84932617 185.50419189 13.13615234 185.25838379 12.40136719 185.00512695 C0.04045191 181.04368029 -13.08983426 180.66343957 -25.96435547 180.73925781 C-28.13146687 180.75003215 -30.29775619 180.73924979 -32.46484375 180.7265625 C-47.30663201 180.70553567 -60.62618646 183.12451527 -74.625 188 C-75.97229767 188.45678817 -77.31995335 188.91252177 -78.66796875 189.3671875 C-85.06095978 191.44387528 -85.06095978 191.44387528 -91.20068359 194.13671875 C-93.80290507 195.38522013 -96.16112436 195.1290398 -99 195 C-99.37101414 189.96393149 -98.35042356 187.07084135 -95.9296875 182.67578125 C-95.61097687 182.08887009 -95.29226624 181.50195892 -94.96389771 180.89726257 C-93.9458901 179.0290258 -92.91093367 177.17084507 -91.875 175.3125 C-91.20197315 174.08461503 -90.53008808 172.85610349 -89.859375 171.62695312 C-88.54187522 169.21728252 -87.21819265 166.81120998 -85.88769531 164.40869141 C-81.9679549 157.33065006 -78.06481612 150.26415361 -74.5 143 C-66.34684612 126.53108201 -57.77176694 110.26380565 -49.14453125 94.0390625 C-46.29837914 88.68612249 -43.48299236 83.31700377 -40.66357422 77.94995117 C-38.41488155 73.67375591 -36.15011851 69.40701113 -33.86279297 65.15136719 C-30.92555504 59.68342946 -28.0684155 54.18662814 -25.3125 48.625 C-17.19918074 32.254143 -8.65885906 16.08821244 0 0 Z " fill="#F7F2ED" transform="translate(149,0)"/>
<path d="M0 0 C-0.59167475 3.69468013 -1.63321366 6.5708841 -3.375 9.875 C-4.93255117 12.88237546 -6.40819002 15.86405041 -7.6875 19 C-9 22 -9 22 -11 24 C-11.67061774 25.6650808 -12.336626 27.33202004 -13 29 C-14.0978113 30.91170588 -15.22495698 32.80675279 -16.375 34.6875 C-19.50349213 39.95825814 -21.94560905 45.23239311 -24 51 C-24.66 51 -25.32 51 -26 51 C-26.268125 51.86625 -26.53625 52.7325 -26.8125 53.625 C-28 57 -28 57 -31 63 C-44.53 63 -58.06 63 -72 63 C-70.00540249 49.03781745 -62.253407 40.02591767 -53 30 C-52.39285156 29.32195312 -51.78570312 28.64390625 -51.16015625 27.9453125 C-47.4473644 23.99633796 -43.21862619 20.63801871 -39 17.25 C-38.41814941 16.77731689 -37.83629883 16.30463379 -37.23681641 15.81762695 C-33.32333937 12.74306648 -29.61245181 10.85477131 -25 9 C-23.64325538 8.18353047 -22.30484599 7.33458162 -21 6.4375 C-17.45402302 4.14667541 -14.11904759 3.01033243 -10 2 C-9.13375 1.62875 -8.2675 1.2575 -7.375 0.875 C-4.76634271 -0.08608427 -2.75762929 -0.15757882 0 0 Z M-50.6875 32.375 C-55.44426467 37.22569232 -59.3570223 42.27938658 -63 48 C-63.7425 49.11955078 -63.7425 49.11955078 -64.5 50.26171875 C-66.63496226 53.54301019 -68.1066534 56.17433962 -69 60 C-63.98327623 60.24805039 -58.97014499 60.42900266 -53.94873047 60.54931641 C-52.2430199 60.59947485 -50.53773664 60.66762724 -48.83349609 60.75439453 C-39.20536816 61.59585769 -39.20536816 61.59585769 -30.71484375 58.11401367 C-29.10634439 55.47278461 -28.05480578 52.90428109 -27 50 C-26.06990694 48.20790939 -25.116362 46.42780982 -24.140625 44.66015625 C-23.17389309 42.79592173 -22.21044251 40.92998256 -21.25 39.0625 C-20.20750192 37.04663153 -19.16452494 35.03101065 -18.12109375 33.015625 C-17.34354736 31.51225586 -17.34354736 31.51225586 -16.55029297 29.97851562 C-15.06117134 27.11752604 -13.55313574 24.26764157 -12.03515625 21.421875 C-11.5752832 20.55812256 -11.11541016 19.69437012 -10.64160156 18.80444336 C-9.7757714 17.18109132 -8.90678533 15.55941733 -8.03417969 13.93969727 C-7.6477832 13.21322998 -7.26138672 12.4867627 -6.86328125 11.73828125 C-6.52594971 11.10962158 -6.18861816 10.48096191 -5.84106445 9.83325195 C-4.95917995 7.91102532 -4.44793505 6.06289629 -4 4 C-20.38530075 4 -39.91261181 21.82378654 -50.6875 32.375 Z " fill="#F9F6F3" transform="translate(93,221)"/>
<path d="M0 0 C0.66 0 1.32 0 2 0 C4.03038269 3.74414913 6.04178268 7.49770088 8.03637695 11.26098633 C8.7171458 12.53910838 9.40297948 13.81454635 10.09399414 15.0871582 C11.0879154 16.91972289 12.06306544 18.7612513 13.03515625 20.60546875 C13.6269165 21.71043701 14.21867676 22.81540527 14.82836914 23.95385742 C16.09252356 27.24055354 16.0758917 28.70256634 15 32 C9.96540765 31.45692849 5.89173478 30.31306669 1.25 28.3125 C-4.57553866 25.89928409 -10.44563445 23.71558228 -16.4375 21.75 C-17.15067383 21.50419189 -17.86384766 21.25838379 -18.59863281 21.00512695 C-33.13947404 16.345054 -48.41780627 16.73439204 -63.5 16.875 C-65.40233898 16.88506185 -67.30468317 16.89418197 -69.20703125 16.90234375 C-73.80481981 16.92407581 -78.40234983 16.95842414 -83 17 C-82.67 16.34 -82.34 15.68 -82 15 C-59.17266392 9.30755828 -26.30281315 11.14771179 -5 21 C-3.81921875 21.49757812 -2.6384375 21.99515625 -1.421875 22.5078125 C0.34425568 23.27991675 2.09776796 24.08430851 3.81640625 24.95703125 C6.47395743 26.22638038 9.1953567 27.11072285 12 28 C10.7563762 25.14301417 9.50393269 22.28997454 8.25 19.4375 C7.90195313 18.63763672 7.55390625 17.83777344 7.1953125 17.01367188 C5.53806689 13.25417953 3.84098543 9.62817929 1.734375 6.09765625 C0 3 0 3 0 0 Z " fill="#F6F1EC" transform="translate(180,164)"/>
<path d="M0 0 C-0.33 1.32 -0.66 2.64 -1 4 C-1 3.01 -1 2.02 -1 1 C-4.50442736 2.17603202 -4.50442736 2.17603202 -7.3359375 4.44140625 C-9.48215125 6.45159237 -11.55354813 7.11699323 -14.3125 8.125 C-32.47675423 15.43902256 -49.92159248 29.42249276 -60.4296875 45.87109375 C-62.08633181 48.11704188 -63.64422402 49.51691026 -66 51 C-66.66 51 -67.32 51 -68 51 C-62.29350293 35.2037545 -44.34874632 19.01363946 -30 11 C-28.75476563 10.505 -28.75476563 10.505 -27.484375 10 C-25.10861548 9.04371944 -23.23476634 7.93569162 -21.125 6.5 C-17.52992111 4.19129586 -14.16893831 3.02256977 -10 2 C-9.13375 1.62875 -8.2675 1.2575 -7.375 0.875 C-4.76634271 -0.08608427 -2.75762929 -0.15757882 0 0 Z " fill="#F7F2EE" transform="translate(93,221)"/>
<path d="M0 0 C2.0625 0.4375 2.0625 0.4375 4 1 C4.66 3.31 5.32 5.62 6 8 C6.66 8 7.32 8 8 8 C9.18280474 10.03369998 10.34583227 12.07512682 11.5 14.125 C12.1496875 15.26195312 12.799375 16.39890625 13.46875 17.5703125 C15.03239549 21.07255928 15.32155356 23.22174563 15 27 C6.68383188 26.41640925 -1.01459326 24.26200586 -9 22 C-8.68499296 16.11986862 -7.5194906 12.67748913 -4.20703125 7.828125 C-2.77851897 5.66455301 -1.88372282 3.43023776 -1 1 C-0.67 0.67 -0.34 0.34 0 0 Z M1 4 C-0.17441535 6.10016623 -1.33964012 8.20458755 -2.5 10.3125 C-2.83386719 10.90740234 -3.16773438 11.50230469 -3.51171875 12.11523438 C-5.06825114 14.95828844 -6 16.70660988 -6 20 C-0.54538831 21.38529821 4.36718401 22.2396943 10 22 C9.39733215 17.49272353 7.63400206 14.1412037 5.4375 10.1875 C5.10814453 9.59001953 4.77878906 8.99253906 4.43945312 8.37695312 C3.63226733 6.91466002 2.81695083 5.4568601 2 4 C1.67 4 1.34 4 1 4 Z " fill="#F0E4D9" transform="translate(150,142)"/>
<path d="M0 0 C3.90442634 0.89244031 5.54454458 2.41821292 7.625 5.6875 C9.11594919 8.18408941 10.28258634 10.66014022 11.4296875 13.33984375 C12.97594491 16.9439313 14.69933716 20.39213898 16.5 23.875 C19.18568321 29.13941754 21.33681851 34.32561608 23 40 C23.66 40 24.32 40 25 40 C28.22265625 45.2734375 28.22265625 45.2734375 29 47 C28.67 47.66 28.34 48.32 28 49 C27.34 48.34 26.68 47.68 26 47 C26 46.01 26 45.02 26 44 C25.08105957 43.8599353 25.08105957 43.8599353 24.14355469 43.71704102 C21.45229271 42.8167863 21.02605489 41.99355776 19.703125 39.52734375 C19.30561035 38.80023193 18.9080957 38.07312012 18.49853516 37.32397461 C18.08651855 36.53643799 17.67450195 35.74890137 17.25 34.9375 C16.81606934 34.13127197 16.38213867 33.32504395 15.93505859 32.49438477 C10.24547347 21.85167308 4.75540674 11.09594905 0 0 Z " fill="#F3E9E1" transform="translate(203,134)"/>
<path d="M0 0 C1.428939 3.39808666 0.78936547 6.16733847 -0.38427734 9.58520508 C-2.02638783 13.45430635 -3.54882155 16.46830818 -7 19 C-14.67605505 21.29028844 -22.84812913 20.90108884 -30.78662109 20.88964844 C-34.63898001 21.02194339 -38.19695713 21.66242429 -41.9375 22.55688477 C-44.64644644 23.13888498 -47.24158563 23.1451797 -50 23 C-50.35281338 18.8029908 -49.64185432 16.93477927 -47 13.6875 C-46.443125 12.99011719 -45.88625 12.29273438 -45.3125 11.57421875 C-44.879375 11.05472656 -44.44625 10.53523437 -44 10 C-43.67 10.66 -43.34 11.32 -43 12 C-43.77734375 13.9453125 -43.77734375 13.9453125 -44.9375 16.125 C-45.31777344 16.84945312 -45.69804688 17.57390625 -46.08984375 18.3203125 C-46.39019531 18.87460938 -46.69054687 19.42890625 -47 20 C-45.76507813 19.79503906 -44.53015625 19.59007812 -43.2578125 19.37890625 C-41.54697784 19.10612506 -39.83603166 18.83404278 -38.125 18.5625 C-37.22620117 18.41329102 -36.32740234 18.26408203 -35.40136719 18.11035156 C-30.85640116 17.40094789 -26.54821826 16.91163345 -21.9453125 17.10546875 C-17.29980379 17.27601151 -13.50836901 17.30517513 -9 16 C-4.8145145 11.93310992 -2.95247735 6.37402125 -1 1 C-0.67 0.67 -0.34 0.34 0 0 Z " fill="#F9F7F5" transform="translate(132,144)"/>
<path d="M0 0 C0.67697433 0.32342377 1.35394867 0.64684753 2.05143738 0.98007202 C5.56735807 2.19625304 8.45653324 2.27975341 12.17700195 2.31884766 C12.87998917 2.32889328 13.58297638 2.3389389 14.30726624 2.34928894 C16.61759669 2.38003808 18.92781171 2.39713272 21.23828125 2.4140625 C22.84540291 2.43278084 24.45251481 2.45235475 26.05961609 2.4727478 C30.27961465 2.52400481 34.49964505 2.56366484 38.7197876 2.60089111 C43.03006831 2.64097117 47.3402173 2.69204523 51.65039062 2.7421875 C60.10017033 2.8388706 68.55001539 2.92329962 77 3 C77 3.66 77 4.32 77 5 C67.5511021 5.06950346 58.10229217 5.12281294 48.65319443 5.15543652 C44.265612 5.17109403 39.87820444 5.19233377 35.49072266 5.22631836 C31.25672944 5.2589089 27.02290444 5.27685237 22.78879547 5.28463173 C21.17324424 5.2901758 19.55770223 5.30100203 17.9422226 5.31719017 C15.67970365 5.33896085 13.41788024 5.34196715 11.15527344 5.34057617 C9.22334137 5.35056892 9.22334137 5.35056892 7.25238037 5.36076355 C3.82065926 4.980107 2.38264542 4.46077608 0 2 C0 1.34 0 0.68 0 0 Z " fill="#FDFCFC" transform="translate(229,295)"/>
<path d="M0 0 C2.25924231 2.08855835 3.72265015 4.0508111 5.12890625 6.78125 C5.51925049 7.53156494 5.90959473 8.28187988 6.31176758 9.05493164 C6.72450928 9.8618042 7.13725098 10.66867676 7.5625 11.5 C8.45292837 13.21754987 9.34355931 14.93499473 10.234375 16.65234375 C10.69005859 17.53519043 11.14574219 18.41803711 11.61523438 19.32763672 C13.39844845 22.76893806 15.20909456 26.19535151 17.02197266 29.62109375 C18.66893737 32.73680452 20.3040707 35.85864473 21.93847656 38.98095703 C22.87461562 40.76151592 23.82308546 42.53558014 24.7734375 44.30859375 C25.24007813 45.19675781 25.70671875 46.08492187 26.1875 47 C26.57292969 47.721875 26.95835937 48.44375 27.35546875 49.1875 C28 51 28 51 27 54 C24 50.25 24 50.25 24 48 C23.34 48 22.68 48 22 48 C21.731875 47.28457031 21.46375 46.56914062 21.1875 45.83203125 C18.3769837 38.68555395 14.90013783 32.43127995 10.78125 25.9609375 C9.00979957 23.01628963 7.82893133 20.28789885 6.78515625 17.0390625 C5.35321793 13.32029732 3.22055606 9.94498598 1.20703125 6.515625 C0 4 0 4 0 0 Z " fill="#F8F4EF" transform="translate(238,164)"/>
<path d="M0 0 C0.66 0.33 1.32 0.66 2 1 C-2.06542432 6.33728891 -6.22931439 11.3370491 -11.0625 16 C-15.14755584 19.97210499 -18.36582942 24.0751551 -21.4296875 28.87109375 C-23.08633181 31.11704188 -24.64422402 32.51691026 -27 34 C-27.66 34 -28.32 34 -29 34 C-24.06118473 20.32878673 -10.68596035 9.3876661 0 0 Z " fill="#F5EDE6" transform="translate(54,238)"/>
<path d="M0 0 C0.69996094 0.01095703 1.39992188 0.02191406 2.12109375 0.03320312 C8.61972725 0.16859132 15.09294097 0.62963133 21.5625 1.25 C21.5625 1.58 21.5625 1.91 21.5625 2.25 C11.9925 2.58 2.4225 2.91 -7.4375 3.25 C-8.4275 5.89 -9.4175 8.53 -10.4375 11.25 C-11.64264622 13.93489008 -12.99861784 16.52429314 -14.375 19.125 C-14.70951172 19.78757813 -15.04402344 20.45015625 -15.38867188 21.1328125 C-17.23766124 24.63841084 -18.54587546 27.01373449 -22.4375 28.25 C-22.1075 26.27 -21.7775 24.29 -21.4375 22.25 C-20.7775 22.25 -20.1175 22.25 -19.4375 22.25 C-19.128125 20.88875 -19.128125 20.88875 -18.8125 19.5 C-17.01184579 13.22343389 -14.20682324 6.20061077 -9.70703125 1.40625 C-6.49959791 -0.22782963 -3.50999371 -0.11010437 0 0 Z " fill="#EEE2D5" transform="translate(120.4375,215.75)"/>
<path d="M0 0 C0.83106766 -0.0033284 1.66213531 -0.0066568 2.51838684 -0.01008606 C4.27242483 -0.01513139 6.02647234 -0.01749513 7.78051758 -0.01733398 C10.43131824 -0.01951014 13.08169525 -0.03766285 15.73242188 -0.05664062 C26.64764172 -0.09287927 36.92453964 0.2536476 47.26953125 4.16796875 C47.26953125 4.82796875 47.26953125 5.48796875 47.26953125 6.16796875 C46.15707031 5.95140625 45.04460937 5.73484375 43.8984375 5.51171875 C24.16515586 2.09423439 4.21988213 2.8898107 -15.73046875 3.16796875 C-15.40046875 2.50796875 -15.07046875 1.84796875 -14.73046875 1.16796875 C-9.85773294 -0.02173695 -4.98426631 0.0070424 0 0 Z " fill="#FDFCFC" transform="translate(112.73046875,177.83203125)"/>
<path d="M0 0 C0.85948746 -0.0033284 1.71897491 -0.0066568 2.60450745 -0.01008606 C4.42619286 -0.01515895 6.24788761 -0.01749427 8.06958008 -0.01733398 C10.86359915 -0.01951928 13.65722282 -0.03766769 16.45117188 -0.05664062 C18.21744656 -0.05957465 19.98372313 -0.06155939 21.75 -0.0625 C23.00942665 -0.07327827 23.00942665 -0.07327827 24.29429626 -0.08427429 C30.21258444 -0.06085306 30.21258444 -0.06085306 32.44140625 2.16796875 C31.33740479 2.18778809 30.23340332 2.20760742 29.09594727 2.22802734 C24.963896 2.30462948 20.83217207 2.3932585 16.70043945 2.48535156 C14.91893012 2.52341731 13.13734977 2.55830745 11.35571289 2.58984375 C8.78115615 2.63598534 6.20707896 2.69389335 3.6328125 2.75390625 C2.84806046 2.76545746 2.06330841 2.77700867 1.254776 2.78890991 C-3.56178839 2.91481773 -7.94740678 3.56926994 -12.61390686 4.78164673 C-15.13260244 5.28199852 -17.13014529 4.95133922 -19.55859375 4.16796875 C-19.55859375 3.83796875 -19.55859375 3.50796875 -19.55859375 3.16796875 C-18.84832031 3.03519531 -18.13804688 2.90242187 -17.40625 2.765625 C-16.48714844 2.58902344 -15.56804687 2.41242188 -14.62109375 2.23046875 C-13.24630859 1.96943359 -13.24630859 1.96943359 -11.84375 1.703125 C-7.74447581 0.74312404 -4.53136657 0.0059914 0 0 Z " fill="#EAD7C4" transform="translate(109.55859375,175.83203125)"/>
<path d="M0 0 C0 3 0 3 -2 8 C3.28 8.66 8.56 9.32 14 10 C14.33 9.01 14.66 8.02 15 7 C18 10.625 18 10.625 18 14 C10.24637268 12.96324187 2.60722152 11.83622588 -5 10 C-5 8.35 -5 6.7 -5 5 C-4.01 4.67 -3.02 4.34 -2 4 C-0.79117904 1.99983534 -0.79117904 1.99983534 0 0 Z " fill="#F9F6F4" transform="translate(146,154)"/>
<path d="M0 0 C0 4.18526422 -1.94056321 7.23603356 -3.8125 10.875 C-4.16892578 11.58269531 -4.52535156 12.29039063 -4.89257812 13.01953125 C-8.92848122 20.97285222 -8.92848122 20.97285222 -11 24 C-11.66 24 -12.32 24 -13 24 C-12.47738677 19.19625376 -11.10102539 16.02763966 -8.5625 11.9375 C-5.95885002 7.71412521 -5.95885002 7.71412521 -3.96484375 3.19140625 C-3.64644531 2.46824219 -3.32804688 1.74507812 -3 1 C-2.01 0.67 -1.02 0.34 0 0 Z " fill="#F9F6F3" transform="translate(150,36)"/>
<path d="M0 0 C3.77215415 1.24266617 5.62988068 2.23336485 7.625 5.6875 C8.24375 6.75677734 8.24375 6.75677734 8.875 7.84765625 C10.43308403 10.82857396 11.73141554 13.88620179 13 17 C13.5775 18.093125 14.155 19.18625 14.75 20.3125 C15.1625 21.199375 15.575 22.08625 16 23 C15.67 23.66 15.34 24.32 15 25 C13 22 13 22 13 19 C12.34 19 11.68 19 11 19 C10.67 18.01 10.34 17.02 10 16 C9.2575 15.34 8.515 14.68 7.75 14 C3.75932912 10.2420213 2.04798662 4.97617175 0 0 Z " fill="#F0E7DD" transform="translate(203,134)"/>
<path d="M0 0 C0.66 0 1.32 0 2 0 C4.02232435 3.80329043 6.03417331 7.61187584 8.03637695 11.42578125 C8.71937319 12.72319785 9.40523983 14.01910752 10.09399414 15.31347656 C11.08192296 17.17126639 12.05949639 19.03418165 13.03515625 20.8984375 C13.92279663 22.57945557 13.92279663 22.57945557 14.82836914 24.29443359 C15.40832642 25.63368896 15.40832642 25.63368896 16 27 C15.67 27.66 15.34 28.32 15 29 C10.62441257 25.10194101 8.46447799 19.62903164 5.8125 14.5 C5.25369141 13.44167969 4.69488281 12.38335937 4.11914062 11.29296875 C3.59126953 10.27847656 3.06339844 9.26398437 2.51953125 8.21875 C2.03589111 7.28998047 1.55225098 6.36121094 1.05395508 5.40429688 C0 3 0 3 0 0 Z " fill="#FBF9F7" transform="translate(175,44)"/>
<path d="M0 0 C0.45375 0.495 0.9075 0.99 1.375 1.5 C2.87635519 3.22609337 2.87635519 3.22609337 5 3 C6.18494305 5.01017125 7.34722614 7.0337095 8.5 9.0625 C9.1496875 10.18785156 9.799375 11.31320313 10.46875 12.47265625 C12.12550253 16.28910404 12.29341705 18.88692174 12 23 C7.759545 17.69943126 4.66530766 12.81940353 4 6 C3.01 5.67 2.02 5.34 1 5 C0.67 3.35 0.34 1.7 0 0 Z " fill="#F3E9DE" transform="translate(226,145)"/>
<path d="M0 0 C0.47147461 0.81041748 0.94294922 1.62083496 1.42871094 2.45581055 C5.12669638 6.11482178 8.11956682 5.73014481 13.140625 5.70703125 C14.02280701 5.72215256 14.90498901 5.73727386 15.81390381 5.75285339 C18.62619497 5.79577476 21.43741375 5.80457248 24.25 5.8125 C26.15888277 5.83564092 28.06773996 5.86100541 29.9765625 5.88867188 C34.65113665 5.95156794 39.32503999 5.98386854 44 6 C44 6.33 44 6.66 44 7 C29.81 7 15.62 7 1 7 C0.67 4.69 0.34 2.38 0 0 Z " fill="#DAB491" transform="translate(238,278)"/>
<path d="M0 0 C3 1 3 1 4.60546875 3.51171875 C5.12753906 4.55972656 5.64960938 5.60773438 6.1875 6.6875 C6.71730469 7.72261719 7.24710937 8.75773437 7.79296875 9.82421875 C9.0508886 13.13389137 9.2365289 15.49411603 9 19 C8.34 18.67 7.68 18.34 7 18 C6.375 14.9375 6.375 14.9375 6 12 C5.34 12 4.68 12 4 12 C3.13353333 10.56988027 2.28218171 9.13059381 1.4375 7.6875 C0.72400391 6.48673828 0.72400391 6.48673828 -0.00390625 5.26171875 C-1 3 -1 3 0 0 Z " fill="#F4ECE4" transform="translate(286,257)"/>
<path d="M0 0 C0 0.99 0 1.98 0 3 C-0.73605469 3.13277344 -1.47210938 3.26554688 -2.23046875 3.40234375 C-3.20628906 3.57894531 -4.18210937 3.75554687 -5.1875 3.9375 C-6.15042969 4.11152344 -7.11335938 4.28554687 -8.10546875 4.46484375 C-10.74239972 4.9523735 -13.3719905 5.46671105 -16 6 C-16 6.66 -16 7.32 -16 8 C-18.31 8.33 -20.62 8.66 -23 9 C-22.01 8.34 -21.02 7.68 -20 7 C-19.401875 6.33484375 -18.80375 5.6696875 -18.1875 4.984375 C-15.52156238 2.56598873 -13.49106164 2.03548887 -10 1.25 C-8.96875 1.00765625 -7.9375 0.7653125 -6.875 0.515625 C-4 0 -4 0 0 0 Z " fill="#FAF8F6" transform="translate(99,203)"/>
<path d="M0 0 C0.66 0 1.32 0 2 0 C3.70385928 3.09545572 5.38517398 6.20259834 7.0625 9.3125 C7.54783203 10.19357422 8.03316406 11.07464844 8.53320312 11.98242188 C8.98759766 12.82998047 9.44199219 13.67753906 9.91015625 14.55078125 C10.33433838 15.33106689 10.75852051 16.11135254 11.19555664 16.9152832 C12 19 12 19 11 22 C8.08929703 18.40982693 5.97810754 14.49850365 3.8125 10.4375 C3.44447266 9.76525391 3.07644531 9.09300781 2.69726562 8.40039062 C0 3.36115782 0 3.36115782 0 0 Z " fill="#FAF9F7" transform="translate(275,236)"/>
<path d="M0 0 C0.75 1.6875 0.75 1.6875 1 4 C0.4121875 4.7321875 -0.175625 5.464375 -0.78125 6.21875 C-3.21941781 9.27504486 -4.66477809 12.2457507 -6.25 15.8125 C-6.77078125 16.97394531 -7.2915625 18.13539063 -7.828125 19.33203125 C-8.21484375 20.21246094 -8.6015625 21.09289062 -9 22 C-10.1328125 20.31640625 -10.1328125 20.31640625 -11 18 C-10.2421875 15.52734375 -10.2421875 15.52734375 -8.875 12.9375 C-8.43929687 12.08027344 -8.00359375 11.22304687 -7.5546875 10.33984375 C-5.9348754 7.90198583 -4.35500474 6.68629969 -2 5 C-0.73152315 2.41501488 -0.73152315 2.41501488 0 0 Z " fill="#F3ECE4" transform="translate(143,126)"/>
<path d="M0 0 C0.33 0.66 0.66 1.32 1 2 C-1.10751731 6.98490397 -3.90745056 11.43552146 -8 15 C-9.11375 16.11375 -9.11375 16.11375 -10.25 17.25 C-10.8275 17.8275 -11.405 18.405 -12 19 C-10.08951651 11.74016275 -6.35633997 4.22380167 0 0 Z " fill="#F2E8DD" transform="translate(94,143)"/>
<path d="M0 0 C0.99 0 1.98 0 3 0 C1.31326082 4.49797113 -0.81673892 8.72886302 -3 13 C-3.66 13 -4.32 13 -5 13 C-5.66 14.32 -6.32 15.64 -7 17 C-7.37951425 12.5750253 -6.25296408 10.06398452 -4.0625 6.25 C-3.51722656 5.28578125 -2.97195312 4.3215625 -2.41015625 3.328125 C-1 1 -1 1 0 0 Z " fill="#F2EAE2" transform="translate(7,273)"/>
<path d="M0 0 C0.33 0.66 0.66 1.32 1 2 C-0.14337946 4.76833734 -1.34846706 7.39139617 -2.6875 10.0625 C-3.04005859 10.80822266 -3.39261719 11.55394531 -3.75585938 12.32226562 C-4.10841797 13.03189453 -4.46097656 13.74152344 -4.82421875 14.47265625 C-5.14479248 15.12500244 -5.46536621 15.77734863 -5.7956543 16.44946289 C-7.34230598 18.44070247 -8.55720702 18.63366104 -11 19 C-9.78065514 14.96678237 -8.44045073 11.45730521 -6 8 C-5.34 8 -4.68 8 -4 8 C-3.71125 7.05125 -3.4225 6.1025 -3.125 5.125 C-2 2 -2 2 0 0 Z " fill="#FAF7F5" transform="translate(124,85)"/>
<path d="M0 0 C1.32 0 2.64 0 4 0 C2.62500502 5.24998082 0.4812618 7.99654893 -3 12 C-4.27852287 14.21587348 -4.27852287 14.21587348 -5 16 C-5.66 16 -6.32 16 -7 16 C-5.35433477 10.31497465 -2.70967216 5.23318364 0 0 Z " fill="#F3E7DC" transform="translate(125,77)"/>
<path d="M0 0 C6.96313009 1.19999521 12.85931873 2.85931873 18 8 C18 8.99 18 9.98 18 11 C17.01 10.67 16.02 10.34 15 10 C15 9.34 15 8.68 15 8 C13.92685547 7.8453125 13.92685547 7.8453125 12.83203125 7.6875 C9.67150484 6.92025497 7.45017514 5.70262646 4.6875 4 C3.80449219 3.46375 2.92148438 2.9275 2.01171875 2.375 C1.34785156 1.92125 0.68398437 1.4675 0 1 C0 0.67 0 0.34 0 0 Z " fill="#EFE5DA" transform="translate(180,217)"/>
<path d="M0 0 C1 3 1 3 0.28735352 4.90112305 C-0.28607788 5.94586792 -0.28607788 5.94586792 -0.87109375 7.01171875 C-1.48500977 8.14770508 -1.48500977 8.14770508 -2.11132812 9.30664062 C-2.54896484 10.09232422 -2.98660156 10.87800781 -3.4375 11.6875 C-4.0881543 12.88342773 -4.0881543 12.88342773 -4.75195312 14.10351562 C-5.82574763 16.07410554 -6.90864182 18.03909927 -8 20 C-8.66 19.67 -9.32 19.34 -10 19 C-8.65610276 14.49558061 -6.84328221 10.7205754 -4.4375 6.6875 C-3.50744141 5.11548828 -3.50744141 5.11548828 -2.55859375 3.51171875 C-1 1 -1 1 0 0 Z " fill="#FAF8F6" transform="translate(115,67)"/>
<path d="M0 0 C0 3.78374009 -1.10336895 5.74863249 -3 9 C-4.30518475 10.03647024 -5.63461347 11.04422943 -7 12 C-7.33 12.99 -7.66 13.98 -8 15 C-8.66 15 -9.32 15 -10 15 C-8.86726461 10.55619192 -7.71682385 6.73563279 -5 3 C-4.34 3 -3.68 3 -3 3 C-3 2.34 -3 1.68 -3 1 C-2.01 0.67 -1.02 0.34 0 0 Z " fill="#F1E4D8" transform="translate(115,103)"/>
<path d="M0 0 C0.66 0 1.32 0 2 0 C3.36663387 2.43123269 4.7183867 4.86886163 6.0625 7.3125 C6.64741211 8.34793945 6.64741211 8.34793945 7.24414062 9.40429688 C8.24037483 11.22925688 9.12752842 13.11273877 10 15 C9.67 15.99 9.34 16.98 9 18 C6.60877931 14.96250345 4.67745591 11.82204961 2.8125 8.4375 C2.28269531 7.48746094 1.75289062 6.53742188 1.20703125 5.55859375 C0 3 0 3 0 0 Z " fill="#FAF9F7" transform="translate(180,164)"/>
<path d="M0 0 C0.33 1.32 0.66 2.64 1 4 C2.093125 4 3.18625 4 4.3125 4 C6.54166667 4 8.77083333 4 11 4 C8.81385576 6.18614424 7.46120051 6.68256535 4.5625 7.625 C3.78003906 7.88539063 2.99757813 8.14578125 2.19140625 8.4140625 C0 9 0 9 -3 9 C-2.5020163 5.26512223 -2.12508244 3.18762365 0 0 Z " fill="#DBBC9C" transform="translate(56,183)"/>
<path d="M0 0 C1.26788512 3.80365536 0.71035956 4.42379365 -1 8 C-2.62611305 11.02355395 -4.29814002 14.01849721 -6 17 C-6.99 17 -7.98 17 -9 17 C-7.68990468 14.35295091 -6.37705236 11.7073344 -5.0625 9.0625 C-4.50272461 7.93038086 -4.50272461 7.93038086 -3.93164062 6.77539062 C-3.39506836 5.69741211 -3.39506836 5.69741211 -2.84765625 4.59765625 C-2.51773682 3.93258057 -2.18781738 3.26750488 -1.84790039 2.58227539 C-1 1 -1 1 0 0 Z " fill="#FAF8F7" transform="translate(147,115)"/>
<path d="M0 0 C-0.53484401 5.34844008 -2.46690767 9.35796103 -5 14 C-5.66 13.01 -6.32 12.02 -7 11 C-5.68 8.36 -4.36 5.72 -3 3 C-3.99 2.67 -4.98 2.34 -6 2 C-3 0 -3 0 0 0 Z " fill="#FBFAF9" transform="translate(92,222)"/>
<path d="M0 0 C0.33 0.66 0.66 1.32 1 2 C-0.14453125 4.53125 -0.14453125 4.53125 -1.8125 7.5 C-2.35519531 8.4796875 -2.89789063 9.459375 -3.45703125 10.46875 C-5 13 -5 13 -7 15 C-7.75 12.875 -7.75 12.875 -8 10 C-6.1875 6.6875 -6.1875 6.6875 -4 4 C-3.34 4 -2.68 4 -2 4 C-1.34 2.68 -0.68 1.36 0 0 Z " fill="#F7F1EC" transform="translate(123,55)"/>
<path d="M0 0 C0.33 0.66 0.66 1.32 1 2 C0.06553465 4.03144641 -0.93224776 6.03533587 -2 8 C-2.66 8 -3.32 8 -4 8 C-4.66 9.98 -5.32 11.96 -6 14 C-6.66 13.01 -7.32 12.02 -8 11 C-7.23832543 9.53686228 -6.46529293 8.07963339 -5.6875 6.625 C-5.25824219 5.81289063 -4.82898438 5.00078125 -4.38671875 4.1640625 C-3 2 -3 2 0 0 Z " fill="#F9F7F5" transform="translate(71,264)"/>
<path d="M0 0 C1.258125 -0.020625 2.51625 -0.04125 3.8125 -0.0625 C4.52019531 -0.07410156 5.22789062 -0.08570313 5.95703125 -0.09765625 C8 0 8 0 11 1 C11 1.66 11 2.32 11 3 C11.804375 3.12375 12.60875 3.2475 13.4375 3.375 C14.7059375 3.684375 14.7059375 3.684375 16 4 C16.33 4.66 16.66 5.32 17 6 C11.07136283 4.83348574 5.61201606 3.24480642 0 1 C0 0.67 0 0.34 0 0 Z " fill="#D6B18E" transform="translate(152,220)"/>
<path d="M0 0 C0.33 0.66 0.66 1.32 1 2 C0.566875 2.495 0.13375 2.99 -0.3125 3.5 C-2.56381668 6.83528397 -3.671061 10.20303142 -5 14 C-6.140625 12.29296875 -6.140625 12.29296875 -7 10 C-6.171875 7.67578125 -6.171875 7.67578125 -4.75 5.3125 C-4.29109375 4.52488281 -3.8321875 3.73726562 -3.359375 2.92578125 C-2 1 -2 1 0 0 Z " fill="#F2EAE2" transform="translate(76,144)"/>
<path d="M0 0 C0.99 0.495 0.99 0.495 2 1 C2.33 1.99 2.66 2.98 3 4 C3.639375 4.268125 4.27875 4.53625 4.9375 4.8125 C7 6 7 6 8.375 8.9375 C8.58125 9.948125 8.7875 10.95875 9 12 C8.01 13.485 8.01 13.485 7 15 C6.566875 13.906875 6.13375 12.81375 5.6875 11.6875 C4.74081833 9.44866515 4.10855165 8.10855165 2.375 6.375 C0.4588701 4.4588701 0.35484985 2.6258889 0 0 Z " fill="#F1E5D9" transform="translate(167,32)"/>
<path d="M0 0 C0.33 0.66 0.66 1.32 1 2 C0.690625 2.598125 0.38125 3.19625 0.0625 3.8125 C-1.20251115 5.97045487 -1.20251115 5.97045487 -0.875 8.5 C-1 11 -1 11 -2.875 13.3125 C-5 15 -5 15 -7 15 C-6.34 13.02 -5.68 11.04 -5 9 C-4.34 9 -3.68 9 -3 9 C-2.814375 7.88625 -2.814375 7.88625 -2.625 6.75 C-2.04513299 4.19858515 -1.26291261 2.2732427 0 0 Z " fill="#D5B08A" transform="translate(135,32)"/>
<path d="M0 0 C0.66 0 1.32 0 2 0 C2.83819158 1.62249941 3.6704116 3.24808497 4.5 4.875 C4.9640625 5.77992187 5.428125 6.68484375 5.90625 7.6171875 C7 10 7 10 7 12 C6.01 11.67 5.02 11.34 4 11 C3.67 10.01 3.34 9.02 3 8 C2.484375 7.54625 1.96875 7.0925 1.4375 6.625 C0 5 0 5 -0.1875 2.3125 C-0.125625 1.549375 -0.06375 0.78625 0 0 Z " fill="#F8F4EF" transform="translate(165,25)"/>
<path d="M0 0 C0.66 0.33 1.32 0.66 2 1 C0.77937479 2.44475986 -0.45192126 3.88050764 -1.6875 5.3125 C-2.37199219 6.11300781 -3.05648437 6.91351563 -3.76171875 7.73828125 C-6.01677668 10.01695236 -8.19152343 11.48017643 -11 13 C-9.46356148 9.31930113 -7.21849055 7.01224796 -4.375 4.25 C-3.55773438 3.45078125 -2.74046875 2.6515625 -1.8984375 1.828125 C-0.95871094 0.92320312 -0.95871094 0.92320312 0 0 Z " fill="#E8D9CA" transform="translate(47,244)"/>
<path d="M0 0 C0.66 0 1.32 0 2 0 C4.05257931 3.44833324 5.0632763 5.31661591 4.6875 9.375 C4.460625 10.24125 4.23375 11.1075 4 12 C3.01 11.67 2.02 11.34 1 11 C1.66 11 2.32 11 3 11 C2.505 10.113125 2.01 9.22625 1.5 8.3125 C0.05621326 5.12413762 -0.30159922 3.41812454 0 0 Z " fill="#F3EAE3" transform="translate(189,181)"/>
<path d="M0 0 C0.99 0.33 1.98 0.66 3 1 C3 1.99 3 2.98 3 4 C3.66 4 4.32 4 5 4 C5.67154933 5.28913487 6.33708859 6.58140204 7 7.875 C7.37125 8.59429687 7.7425 9.31359375 8.125 10.0546875 C9 12 9 12 9 14 C6 13 6 13 4.39453125 10.3125 C3.61142578 8.6728125 3.61142578 8.6728125 2.8125 7 C2.28269531 5.906875 1.75289062 4.81375 1.20703125 3.6875 C0 1 0 1 0 0 Z " fill="#FCFBFB" transform="translate(211,149)"/>
<path d="M0 0 C3 1 3 1 4.16796875 2.99609375 C4.50441406 3.80175781 4.84085937 4.60742188 5.1875 5.4375 C5.53167969 6.24058594 5.87585938 7.04367187 6.23046875 7.87109375 C7 10 7 10 7 12 C6.34 12 5.68 12 5 12 C4.16180842 10.37750059 3.3295884 8.75191503 2.5 7.125 C2.0359375 6.22007812 1.571875 5.31515625 1.09375 4.3828125 C0 2 0 2 0 0 Z " fill="#FBFAF8" transform="translate(294,272)"/>
<path d="M0 0 C0 0.33 0 0.66 0 1 C-0.75925781 1.13277344 -1.51851562 1.26554688 -2.30078125 1.40234375 C-3.29464844 1.57894531 -4.28851563 1.75554687 -5.3125 1.9375 C-6.29863281 2.11152344 -7.28476563 2.28554687 -8.30078125 2.46484375 C-11.08189213 2.95746847 -11.08189213 2.95746847 -14 4 C-16.6875 3.5625 -16.6875 3.5625 -19 3 C-19 2.67 -19 2.34 -19 2 C-12.53205867 0.48766299 -6.64409958 -0.21432579 0 0 Z " fill="#F2E7DC" transform="translate(109,177)"/>
<path d="M0 0 C1 3 1 3 0.00390625 5.26171875 C-0.47175781 6.06222656 -0.94742188 6.86273438 -1.4375 7.6875 C-2.14712891 8.89986328 -2.14712891 8.89986328 -2.87109375 10.13671875 C-3.24363281 10.75160156 -3.61617188 11.36648437 -4 12 C-4.66 12 -5.32 12 -6 12 C-5.54300722 6.97307937 -3.00758252 3.85103739 0 0 Z " fill="#FCFBFA" transform="translate(111,220)"/>
<path d="M0 0 C4.84659077 0.59104765 8.60748167 1.97944157 13 4 C13.33 3.34 13.66 2.68 14 2 C14.33 3.32 14.66 4.64 15 6 C9.67812773 4.78623966 4.96093728 3.27376292 0 1 C0 0.67 0 0.34 0 0 Z " fill="#D9B38A" transform="translate(177,186)"/>
<path d="M0 0 C1 2 1 2 0.25 4.5 C-1 7 -1 7 -4 9 C-4.33 9.99 -4.66 10.98 -5 12 C-5.66 12 -6.32 12 -7 12 C-5.44298069 7.32894208 -2.91552627 3.91294315 0 0 Z " fill="#D7B28A" transform="translate(21,254)"/>
<path d="M0 0 C0.33 0 0.66 0 1 0 C1.25 2.75 1.25 2.75 1 6 C-1 8.375 -1 8.375 -3 10 C-4 7 -4 7 -3.22265625 5.17578125 C-2.1484375 3.45052083 -1.07421875 1.72526042 0 0 Z " fill="#F5EFE9" transform="translate(85,234)"/>
<path d="M0 0 C0.66 0.33 1.32 0.66 2 1 C-0.41556126 4.19199167 -2.68003538 6.74716687 -6 9 C-6.66 8.67 -7.32 8.34 -8 8 C-3.375 2.25 -3.375 2.25 0 0 Z " fill="#FBFAF9" transform="translate(59,236)"/>
<path d="M0 0 C0.75 1.5625 0.75 1.5625 1 4 C-0.13084437 6.50286409 -1.52139516 8.67007722 -3 11 C-3.66 10.34 -4.32 9.68 -5 9 C-4.3566152 7.686298 -3.71021785 6.37407102 -3.0625 5.0625 C-2.70285156 4.33160156 -2.34320313 3.60070312 -1.97265625 2.84765625 C-1 1 -1 1 0 0 Z " fill="#F9F7F5" transform="translate(69,154)"/>
<path d="M0 0 C2.475 0.99 2.475 0.99 5 2 C6.125 8.75 6.125 8.75 5 11 C4.35165346 9.730447 3.70642185 8.45930294 3.0625 7.1875 C2.70285156 6.47980469 2.34320313 5.77210938 1.97265625 5.04296875 C1 3 1 3 0 0 Z " fill="#F1E4D8" transform="translate(166,141)"/>
<path d="M0 0 C0 3.34419152 -0.47519394 4.06840321 -2.375 6.6875 C-2.81585937 7.31011719 -3.25671875 7.93273437 -3.7109375 8.57421875 C-4.13632812 9.04472656 -4.56171875 9.51523437 -5 10 C-5.66 10 -6.32 10 -7 10 C-5.6062718 5.56541027 -3.39417765 3.12621626 0 0 Z " fill="#FAF7F4" transform="translate(29,269)"/>
<path d="M0 0 C-1.20381448 2.49361571 -2.45428722 4.68143083 -4 7 C-4.66 6.67 -5.32 6.34 -6 6 C-6.99 6 -7.98 6 -9 6 C-3.15384615 0 -3.15384615 0 0 0 Z " fill="#ECDCCC" transform="translate(65,232)"/>
<path d="M0 0 C2.75 0.25 2.75 0.25 5 1 C4.34 1.66 3.68 2.32 3 3 C2.01 3 1.02 3 0 3 C0 3.66 0 4.32 0 5 C-2.31 5.33 -4.62 5.66 -7 6 C-6.01 5.34 -5.02 4.68 -4 4 C-3.38125 3.278125 -2.7625 2.55625 -2.125 1.8125 C-1.42375 1.214375 -0.7225 0.61625 0 0 Z " fill="#EDE2D8" transform="translate(83,206)"/>
<path d="M0 0 C0.33 0.66 0.66 1.32 1 2 C0.00390625 4.1640625 0.00390625 4.1640625 -1.4375 6.625 C-1.91058594 7.44226563 -2.38367188 8.25953125 -2.87109375 9.1015625 C-3.24363281 9.72804688 -3.61617188 10.35453125 -4 11 C-4.66 10.67 -5.32 10.34 -6 10 C-5.67 8.68 -5.34 7.36 -5 6 C-4.34 6 -3.68 6 -3 6 C-2.87625 5.38125 -2.7525 4.7625 -2.625 4.125 C-2 2 -2 2 0 0 Z " fill="#FDFCFB" transform="translate(110,112)"/>
<path d="M0 0 C0 0.99 0 1.98 0 3 C0.33 3.99 0.66 4.98 1 6 C-2.75 9 -2.75 9 -5 9 C-3.7508258 5.54074837 -2.32472205 2.85306797 0 0 Z " fill="#EBDCCC" transform="translate(30,263)"/>
<path d="M0 0 C0 3.9519815 -1.37176172 5.14648416 -4 8 C-4.99 8.33 -5.98 8.66 -7 9 C-5.64978174 4.58110387 -3.73884332 2.65654657 0 0 Z " fill="#FCFBFA" transform="translate(36,259)"/>
<path d="M0 0 C0 0.66 0 1.32 0 2 C0.66 2.33 1.32 2.66 2 3 C0.741875 2.87625 -0.51625 2.7525 -1.8125 2.625 C-2.87404297 2.52058594 -2.87404297 2.52058594 -3.95703125 2.4140625 C-6 2 -6 2 -9 0 C-5.62182575 -0.84454356 -3.32534757 -1.10844919 0 0 Z " fill="#F1E9E2" transform="translate(160,206)"/>
<path d="M0 0 C0.75 1.6875 0.75 1.6875 1 4 C-0.8125 6.5625 -0.8125 6.5625 -3 9 C-3.66 9.99 -4.32 10.98 -5 12 C-5.33 10.68 -5.66 9.36 -6 8 C-5.071875 7.4121875 -5.071875 7.4121875 -4.125 6.8125 C-1.67503632 4.72282509 -0.98120002 3.02536673 0 0 Z " fill="#E8D7C5" transform="translate(143,126)"/>
<path d="M0 0 C1.32 0 2.64 0 4 0 C4 2 4 2 1.625 4.5625 C-1 7 -1 7 -3 8 C-1.125 2.25 -1.125 2.25 0 0 Z " fill="#EDD8C7" transform="translate(125,77)"/>
<path d="M0 0 C0.66 0 1.32 0 2 0 C3.5625 2.8125 3.5625 2.8125 5 6 C4.67 6.99 4.34 7.98 4 9 C1.49701566 6.06171403 0.53069061 3.82097239 0 0 Z " fill="#FBF9F7" transform="translate(261,209)"/>
<path d="M0 0 C0.66 0 1.32 0 2 0 C1.01 2.97 0.02 5.94 -1 9 C-1.99 9 -2.98 9 -4 9 C-2.80100302 5.9168649 -1.52299523 2.93720508 0 0 Z " fill="#D9B28A" transform="translate(93,112)"/>
<path d="M0 0 C2.0625 0.4375 2.0625 0.4375 4 1 C3.54625 1.433125 3.0925 1.86625 2.625 2.3125 C0.79975666 4.10798342 0.79975666 4.10798342 -1 7 C-1.66 7 -2.32 7 -3 7 C-1.125 1.125 -1.125 1.125 0 0 Z " fill="#FCFBFB" transform="translate(149,0)"/>
<path d="M0 0 C1.31602523 0.61754259 2.62773556 1.24428742 3.9375 1.875 C4.66839844 2.22304687 5.39929688 2.57109375 6.15234375 2.9296875 C8 4 8 4 9 6 C5.85262818 5.30058404 2.97411124 4.23921302 0 3 C0 2.01 0 1.02 0 0 Z " fill="#FBFBFA" transform="translate(180,214)"/>
<path d="M0 0 C0.66 0 1.32 0 2 0 C5 5.75 5 5.75 5 8 C2 7 2 7 0.8125 5.125 C0 3 0 3 0 0 Z " fill="#FAF8F6" transform="translate(171,147)"/>
<path d="M0 0 C0.33 0.66 0.66 1.32 1 2 C0.00390625 4.1640625 0.00390625 4.1640625 -1.4375 6.625 C-1.91058594 7.44226562 -2.38367188 8.25953125 -2.87109375 9.1015625 C-3.24363281 9.72804688 -3.61617188 10.35453125 -4 11 C-5.33332095 8.3333581 -4.67102033 6.83319697 -4 4 C-3.34 4 -2.68 4 -2 4 C-1.34 2.68 -0.68 1.36 0 0 Z " fill="#E6D2BB" transform="translate(123,55)"/>
<path d="M0 0 C0.33 0 0.66 0 1 0 C1 1.65 1 3.3 1 5 C0.34 5 -0.32 5 -1 5 C-1.66 6.32 -2.32 7.64 -3 9 C-3.25873987 5.89512156 -3.23307327 4.37494396 -1.5625 1.6875 C-1.046875 1.130625 -0.53125 0.57375 0 0 Z " fill="#F7F3F0" transform="translate(3,281)"/>
<path d="M0 0 C5.75 -0.125 5.75 -0.125 8 1 C8 1.66 8 2.32 8 3 C5.36 2.67 2.72 2.34 0 2 C0 1.34 0 0.68 0 0 Z " fill="#FCFBFA" transform="translate(140,219)"/>
<path d="M0 0 C0.66 0 1.32 0 2 0 C5 5.75 5 5.75 5 8 C4.01 7.67 3.02 7.34 2 7 C0.8125 3.4375 0.8125 3.4375 0 0 Z " fill="#FBF9F7" transform="translate(164,134)"/>
<path d="M0 0 C0.66 0 1.32 0 2 0 C2.36256858 1.4562672 2.71479793 2.91511185 3.0625 4.375 C3.35833984 5.59316406 3.35833984 5.59316406 3.66015625 6.8359375 C4 9 4 9 3 11 C2.49384702 9.73160474 1.99530901 8.46016898 1.5 7.1875 C1.2215625 6.47980469 0.943125 5.77210938 0.65625 5.04296875 C0 3 0 3 0 0 Z " fill="#F1E3D5" transform="translate(162,130)"/>
<path d="M0 0 C0.33 0.66 0.66 1.32 1 2 C0.06553465 4.03144641 -0.93224776 6.03533587 -2 8 C-2.66 6.68 -3.32 5.36 -4 4 C-2.68 2.68 -1.36 1.36 0 0 Z " fill="#EEE4DA" transform="translate(71,264)"/>
<path d="M0 0 C0.66 0.33 1.32 0.66 2 1 C-1.61328125 5.6875 -1.61328125 5.6875 -3 7 C-3.99 7 -4.98 7 -6 7 C-6 6.34 -6 5.68 -6 5 C-4.04072937 3.2856382 -2.04119788 1.61594832 0 0 Z " fill="#DAB595" transform="translate(41,232)"/>
<path d="M0 0 C-3.42346555 3.14958831 -6.44262737 3.56179109 -11 4 C-4.625 -0.25 -4.625 -0.25 0 0 Z " fill="#DAB796" transform="translate(78,182)"/>
<path d="M0 0 C0.99 0.33 1.98 0.66 3 1 C3 3 3 3 1.125 5.125 C-1 7 -1 7 -3 7 C-1.125 1.125 -1.125 1.125 0 0 Z " fill="#F0E3D7" transform="translate(145,151)"/>
<path d="M0 0 C1.65 0 3.3 0 5 0 C5 0.66 5 1.32 5 2 C4.01 2.33 3.02 2.66 2 3 C0.79117904 5.00016466 0.79117904 5.00016466 0 7 C-1.33332095 4.3333581 -0.67102033 2.83319697 0 0 Z " fill="#E9D5C5" transform="translate(148,113)"/>
<path d="M0 0 C0.33 0.99 0.66 1.98 1 3 C-0.4375 5.6875 -0.4375 5.6875 -2 8 C-2.66 7.67 -3.32 7.34 -4 7 C-2.68 4.69 -1.36 2.38 0 0 Z " fill="#FCFAF8" transform="translate(98,99)"/>
<path d="M0 0 C0.33 0 0.66 0 1 0 C1 1.65 1 3.3 1 5 C0.01 5.33 -0.98 5.66 -2 6 C-2 6.66 -2 7.32 -2 8 C-2.66 8 -3.32 8 -4 8 C-3.67 6.68 -3.34 5.36 -3 4 C-2.34 4 -1.68 4 -1 4 C-0.67 2.68 -0.34 1.36 0 0 Z " fill="#D1AB82" transform="translate(146,12)"/>
</svg>
